<svg xmlns="http://www.w3.org/2000/svg" width="122" viewBox="0 0 74 13" fill="none">
<g clip-path="url(#clip0_204_10)">
<path d="M0.645996 10.0718C0.81722 9.71243 1.0327 9.4378 1.15188 9.12632C1.62542 7.8887 2.07135 6.64047 2.52272 5.39444C2.87408 4.42452 3.25324 3.46266 3.55362 2.47698C3.75722 1.8089 4.25241 1.58524 4.82574 1.55537C5.28367 1.53152 5.78906 1.61142 6.20291 1.79996C6.54424 1.95547 6.90207 2.28821 7.04276 2.62903C7.40731 3.51211 7.64785 4.44574 7.95265 5.35423C8.67529 7.50814 9.40649 9.65919 10.2123 12.0424C9.50812 12.0578 8.91808 12.1169 8.33674 12.0695C7.8223 12.0275 7.6296 11.6703 7.63202 11.1441C7.63334 10.8577 7.45998 10.5704 7.36421 10.1658C7.36132 9.93135 7.35963 9.81463 7.32813 9.64211C6.26962 9.57931 5.24078 9.56044 4.21227 9.57171C3.85178 9.57566 3.4921 9.65371 3.13074 9.74157C3.1301 9.81432 3.13077 9.84342 3.13145 9.87253C2.97011 10.5337 2.93507 11.2725 2.59592 11.8245C2.41751 12.1148 1.71061 12.0971 1.23548 12.1783C1.09213 12.2028 0.925704 12.0922 0.707923 12.0457C0.645996 11.4119 0.645996 10.7758 0.645996 10.0718ZM4.72251 5.10044C4.46201 5.97938 4.2015 6.85833 3.92667 7.78558C4.86445 7.78558 5.65824 7.78558 6.60939 7.78558C6.08532 6.58523 5.99543 5.3077 5.20327 4.21572C5.00172 4.54361 4.86747 4.76201 4.72251 5.10044Z" fill="black"/>
<path opacity="0.8" d="M73.646 11.9796C73.344 12.0964 73.041 12.1909 72.7401 12.1847C71.8631 12.1665 71.7452 12.0234 71.7456 11.1496C71.747 8.03568 71.7461 4.9218 71.7461 1.80791C71.7461 1.54581 71.7461 1.2837 71.7461 0.846069C72.4077 0.971498 72.974 1.07885 73.5932 1.1421C73.646 4.70238 73.646 8.30676 73.646 11.9796Z" fill="black"/>
<path opacity="0.8" d="M49.2736 7.46705C48.9956 6.94121 48.7422 6.36901 48.4181 5.63699C47.633 5.51075 48.4206 4.57226 47.976 4.0523C47.9168 5.18973 47.8686 6.27413 47.8019 7.35738C47.7133 8.79478 47.6362 10.2337 47.5028 11.6672C47.43 12.4487 46.7608 12.1989 46.331 12.1614C45.9223 12.1257 45.4437 11.9604 45.6363 11.3322C45.6776 11.1974 45.7467 11.064 45.7545 10.9272C45.9068 8.26121 46.0532 5.5949 46.1962 2.92841C46.2117 2.6405 46.1983 2.35105 46.1983 2.03691C46.5442 1.92014 46.8888 1.73871 47.2504 1.69396C48.3563 1.55705 48.7693 1.83464 49.3509 3.12739C49.9121 4.37458 50.4239 5.64394 51.0364 7.09025C51.2589 6.76514 51.482 6.53617 51.5916 6.26184C52.0545 5.10365 52.4664 3.92497 52.9356 2.76952C53.0737 2.42944 53.2784 1.96411 53.5597 1.86738C54.0833 1.68727 54.6944 1.65321 55.2524 1.71348C55.7466 1.76687 56.0561 2.19938 56.1164 2.69851C56.1982 3.37606 56.2157 4.0615 56.2577 4.74375C56.3607 6.4182 56.4553 8.0932 56.567 9.76706C56.6147 10.4832 56.6967 11.197 56.7765 12.0563C56.0856 12.0563 55.4795 12.0563 54.8244 12.0563C54.7529 10.7129 54.6881 9.41784 54.6139 8.12333C54.5398 6.82902 54.4563 5.53525 54.2314 4.22016C54.1778 4.59725 54.1765 4.99211 54.0562 5.34656C53.9288 5.72153 53.6666 6.04824 53.5013 6.41323C53.0634 7.3797 52.7066 8.38827 52.2025 9.31765C51.7599 10.1335 50.4203 10.0483 49.9892 9.20381C49.7009 8.639 49.5246 8.01706 49.2736 7.46705Z" fill="black"/>
<path opacity="0.8" d="M29.2469 9.42162C29.5432 10.1073 29.9118 10.6391 30.7347 10.5932C31.2675 10.5635 31.8057 10.6183 32.3365 10.5748C32.6035 10.5529 32.8634 10.4056 33.1193 10.2978C33.3104 10.2173 33.5845 9.98262 33.657 10.0368C33.888 10.2096 34.0844 10.4647 34.2119 10.7279C34.306 10.9223 34.2715 11.179 34.3 11.4654C32.7839 12.5957 31.0059 12.3 29.3197 12.0048C27.9214 11.7599 27.3498 10.5901 26.8795 9.27273C26.3402 7.76213 26.7991 6.46536 27.4624 5.29016C27.9233 4.47354 28.9441 3.94368 29.969 3.89672C30.9031 3.85392 31.8572 3.96051 32.78 4.12649C33.0815 4.18072 33.2728 4.69132 33.5823 4.88484C34.6955 5.58096 34.5868 6.68623 34.4659 7.71057C34.4289 8.02446 33.8261 8.41981 33.4225 8.51006C32.6834 8.67537 31.8992 8.63518 31.1346 8.69274C30.6353 8.73034 30.1289 8.75125 29.6439 8.86036C29.487 8.89564 29.3878 9.1874 29.2469 9.42162ZM30.1042 5.71653C29.4629 5.54404 29.3426 6.09148 29.1378 6.45892C28.8138 7.04039 28.9412 7.26064 29.5962 7.21754C30.3514 7.16787 31.103 7.04731 31.8518 6.93025C32.0646 6.89699 32.433 6.77131 32.4343 6.68339C32.438 6.44932 32.297 6.20425 32.1809 5.98048C32.1161 5.85555 31.971 5.77495 31.8885 5.65602C31.5827 5.2149 30.4818 5.17805 30.1042 5.71653Z" fill="black"/>
<path opacity="0.8" d="M43.1549 10.8756C42.6199 11.737 41.7145 12.0204 40.9075 12.1418C39.9063 12.2923 38.8348 12.1698 37.8264 11.9861C37.3883 11.9063 36.9576 11.4366 36.6543 11.0432C36.124 10.3554 35.6317 9.65355 35.6616 8.67106C35.6937 7.61911 35.6686 6.57133 36.2176 5.64165C36.4369 5.27043 36.7955 4.96043 37.1443 4.69232C37.5521 4.37889 37.9874 4.00653 38.4652 3.89694C39.8435 3.58079 41.2828 3.69304 42.4027 4.52923C43.1661 5.09917 44.0493 5.85906 43.8718 7.10575C43.8134 7.51642 43.8386 7.94623 43.8785 8.36222C43.9669 9.28528 43.7762 10.1225 43.1549 10.8756ZM39.39 5.43511C39.0266 5.71964 38.5335 5.93062 38.3231 6.30185C37.5528 7.66094 37.7674 9.27268 38.7567 10.3494C39.3966 11.0459 40.8997 10.7092 41.3284 9.87756C41.7676 9.0254 41.6714 8.1545 41.6613 7.28098C41.6525 6.52992 40.9392 5.542 40.3439 5.39921C40.0723 5.33407 39.7754 5.37467 39.39 5.43511Z" fill="black"/>
<path opacity="0.8" d="M61.5689 3.78653C62.4594 3.95465 63.3032 4.1419 64.135 4.37256C65.0115 4.61562 65.3153 5.30308 65.3259 6.12758C65.3464 7.73059 65.317 9.3342 65.3285 10.9374C65.3341 11.7253 64.5162 11.9539 64.1836 11.9852C62.6666 12.1275 61.1287 12.048 59.5984 12.0474C59.5504 12.0473 59.4819 12.0568 59.4576 12.0301C59.0786 11.615 58.6107 11.2446 58.3559 10.7622C58.0701 10.2209 57.873 9.6433 58.2342 8.94711C58.8264 7.80568 59.5919 7.2479 60.9046 7.22129C61.6202 7.20678 62.3341 7.10338 63.2168 7.02518C63.0825 6.49807 62.9528 5.98876 62.8228 5.47874C62.0328 5.47874 61.3106 5.38007 60.6373 5.51863C60.2781 5.59254 59.9248 5.77079 59.527 5.85219C58.9087 5.97868 58.7215 5.82284 58.7496 5.24176C58.7585 5.05866 58.7334 4.87391 58.7212 4.63919C59.4887 3.96837 60.5046 3.90227 61.5689 3.78653ZM60.9222 8.93443C60.4944 9.03448 60.2834 9.27371 60.3547 9.73941C60.4176 10.1498 60.4413 10.5841 60.9968 10.5967C61.7515 10.6137 62.5068 10.6009 63.2352 10.6009C63.2352 9.90901 63.2352 9.32814 63.2352 8.68947C62.9362 8.68947 62.6504 8.66968 62.3684 8.69397C61.9124 8.73323 61.459 8.80145 60.9222 8.93443Z" fill="black"/>
<path d="M11.4777 4.45788C11.3734 3.79798 11.9803 3.86617 12.2987 3.75206C12.6915 3.6113 13.0708 3.82359 13.1969 4.27092C13.2791 4.56237 13.3387 4.87075 13.3416 5.17219C13.3561 6.65659 13.3482 8.1412 13.3482 9.73042C13.447 9.59853 13.4799 9.57127 13.4898 9.53731C13.503 9.49191 13.4984 9.44132 13.5342 9.33694C13.567 9.28093 13.612 9.27945 13.612 9.27945C13.6248 10.3516 13.8669 10.5957 14.9903 10.5805C15.4158 10.5747 15.883 10.5752 16.2495 10.401C16.48 10.2915 16.68 9.86541 16.6861 9.57689C16.725 7.75669 16.7058 5.93525 16.7058 3.91147C17.3887 3.96511 18.0281 4.01532 18.6038 4.06053C18.6038 5.25495 18.6038 6.28816 18.6039 7.32137C18.6039 8.43925 18.6132 9.55725 18.6004 10.675C18.5939 11.2447 18.3726 11.5496 17.7528 11.7963C16.1241 12.4445 14.4968 12.1552 12.8629 12.0365C12.2016 11.9885 11.4506 10.7488 11.521 9.75537C11.6375 9.60199 11.728 9.52534 11.7285 9.44809C11.7388 7.90569 11.7447 6.36316 11.7294 4.82088C11.7282 4.69906 11.5654 4.57884 11.4777 4.45788Z" fill="black"/>
<path opacity="0.8" d="M20.6637 11.6033C20.6637 11.6033 20.7232 11.6094 20.8118 11.5963C20.9617 11.4643 21.0755 11.3458 21.0763 11.2265C21.0882 9.45727 21.0914 7.68792 21.0742 5.91882C21.0728 5.77167 20.9097 5.62609 20.8218 5.47979C20.9074 5.24453 20.9263 4.8816 21.0901 4.79611C21.8035 4.42378 22.4311 3.82745 23.3236 3.86709C23.8567 3.89077 24.3987 3.81672 24.9238 3.88535C25.347 3.94065 25.7507 4.144 26.0989 4.26023C26.0798 4.55993 26.0573 4.74256 26.0588 4.92499C26.062 5.32461 25.9212 5.51775 25.4815 5.42102C24.5792 5.22253 23.7261 5.29337 22.9491 6.01142C22.89 6.06216 22.8208 6.06946 22.8208 6.06946C22.8208 6.06946 22.7625 6.06411 22.6938 6.04212C22.5497 6.04719 22.4085 6.07433 22.4086 6.10129C22.4109 8.07508 22.4245 10.0489 22.4372 12.0226C21.7476 12.2993 21.1249 12.1574 20.5725 11.6657C20.5957 11.6104 20.6637 11.6033 20.6637 11.6033Z" fill="black"/>
<path opacity="0.8" d="M69.6024 1.36462C69.5439 1.39272 69.4855 1.42083 69.3502 1.50893C69.2222 1.76792 69.1272 1.96678 69.1266 2.16592C69.1168 5.32298 69.1187 8.48008 69.1214 11.6372C69.1214 11.6835 69.1647 11.7298 69.1929 11.7863C69.2772 11.7092 69.3306 11.6604 69.384 11.6116C69.3467 11.7565 69.3563 11.9539 69.2636 12.0369C68.9331 12.3327 67.7209 12.223 67.3337 11.7366C67.3249 11.7256 67.4385 11.6173 67.5737 11.4928C67.7036 11.1833 67.7984 10.9356 67.7993 10.6875C67.8098 7.81809 67.8033 4.94865 67.8099 2.07924C67.8106 1.76216 67.8646 1.4452 67.8963 1.10182C67.7768 1.11459 67.6586 1.12721 67.5404 1.13984C68.0198 0.822031 68.8191 0.880105 69.5609 1.32899C69.5967 1.37396 69.6024 1.36462 69.6024 1.36462Z" fill="black"/>
<path opacity="0.8" d="M69.3945 11.5438C69.3306 11.6604 69.2773 11.7092 69.1929 11.7863C69.1647 11.7298 69.1215 11.6835 69.1214 11.6372C69.1188 8.48007 69.1168 5.32297 69.1266 2.16592C69.1273 1.96677 69.2222 1.76791 69.3291 1.55341C69.3915 4.85059 69.3982 8.16329 69.3945 11.5438Z" fill="black"/>
<path opacity="0.8" d="M67.5308 1.19915C67.6586 1.1272 67.7768 1.11457 67.8963 1.10181C67.8646 1.44518 67.8106 1.76214 67.8099 2.07922C67.8033 4.94863 67.8098 7.81807 67.7993 10.6875C67.7984 10.9355 67.7037 11.1833 67.5968 11.4467C67.5344 8.06091 67.5278 4.65969 67.5308 1.19915Z" fill="black"/>
<path opacity="0.8" d="M20.8114 5.54739C20.9098 5.62609 21.0728 5.77166 21.0743 5.91881C21.0914 7.68791 21.0882 9.45727 21.0763 11.2265C21.0755 11.3458 20.9617 11.4643 20.8417 11.5949C20.789 9.60938 20.795 7.61219 20.8114 5.54739Z" fill="black"/>
<path opacity="0.8" d="M22.4521 12.0258C22.4245 10.0488 22.4109 8.07507 22.4086 6.10128C22.4085 6.07431 22.5497 6.04718 22.6646 6.04355C22.6975 7.95559 22.691 9.8442 22.6279 11.8302C22.5466 11.9596 22.5218 11.9916 22.497 12.0235C22.497 12.0235 22.467 12.0289 22.4521 12.0258Z" fill="black"/>
</g>
<defs>
<clipPath id="clip0_204_10">
<rect width="74" height="13" fill="white"/>
</clipPath>
</defs>
</svg>